<?xml version="1.0" encoding="UTF-8" standalone="no"?>
<svg
   xmlns:dc="http://purl.org/dc/elements/1.1/"
   xmlns:cc="http://creativecommons.org/ns#"
   xmlns:rdf="http://www.w3.org/1999/02/22-rdf-syntax-ns#"
   xmlns:svg="http://www.w3.org/2000/svg"
   xmlns="http://www.w3.org/2000/svg"
   xmlns:sodipodi="http://sodipodi.sourceforge.net/DTD/sodipodi-0.dtd"
   xmlns:inkscape="http://www.inkscape.org/namespaces/inkscape"
   version="1.1"
   id="svg2"
   xml:space="preserve"
   width="6906.6133"
   height="6278.7466"
   viewBox="0 0 6906.6133 6278.7466"
   sodipodi:docname="amazon-icon-seeklogo.com.eps"><metadata
     id="metadata8"><rdf:RDF><cc:Work
         rdf:about=""><dc:format>image/svg+xml</dc:format><dc:type
           rdf:resource="http://purl.org/dc/dcmitype/StillImage" /></cc:Work></rdf:RDF></metadata><defs
     id="defs6" /><sodipodi:namedview
     pagecolor="#ffffff"
     bordercolor="#666666"
     borderopacity="1"
     objecttolerance="10"
     gridtolerance="10"
     guidetolerance="10"
     inkscape:pageopacity="0"
     inkscape:pageshadow="2"
     inkscape:window-width="640"
     inkscape:window-height="480"
     id="namedview4" /><g
     id="g10"
     inkscape:groupmode="layer"
     inkscape:label="ink_ext_XXXXXX"
     transform="matrix(1.3333333,0,0,-1.3333333,0,6278.7467)"><g
       id="g12"
       transform="scale(0.1)"><path
         d="m 42146.1,9747.8 c 62.7,125.6 156.9,251.1 282.5,376.7 784.8,533.7 1538.3,894.7 2260.4,1083.1 1192.9,313.9 2354.5,486.6 3484.7,518 313.9,31.4 612.1,15.7 894.7,-47.1 1412.7,-125.6 2260.3,-361.1 2542.9,-706.4 125.5,-188.3 188.3,-470.9 188.3,-847.6 v -329.6 c 0,-1098.8 -298.2,-2393.8 -894.7,-3885 -596.5,-1491.2 -1428.4,-2692 -2495.8,-3602.4 -157,-125.6 -298.3,-188.4 -423.8,-188.4 -62.8,0 -125.6,15.7 -188.4,47.1 -188.3,94.2 -235.4,266.9 -141.2,518 1161.5,2731.2 1742.3,4630.5 1742.3,5697.9 0,345.4 -62.8,596.5 -188.3,753.5 -314,376.7 -1193,565.1 -2637.1,565.1 -533.7,0 -1161.6,-31.4 -1883.6,-94.2 -784.9,-94.2 -1506.9,-188.4 -2166.2,-282.5 -188.4,0 -314,31.4 -376.7,94.1 -62.9,62.8 -78.5,125.6 -47.1,188.4 0,31.4 15.7,78.5 47.1,141.3 z M 22368,24910.9 c 0,-1224.3 306.1,-2205.4 918.3,-2943.1 612.2,-737.8 1436.3,-1106.7 2472.2,-1106.7 94.2,0 227.6,15.7 400.3,47.1 172.7,31.4 290.4,47.1 353.2,47.1 1318.5,345.3 2338.8,1193 3060.9,2542.9 345.3,596.5 604.3,1247.9 777,1954.3 172.6,706.3 266.8,1279.3 282.5,1718.8 15.7,439.5 23.6,1161.6 23.6,2166.1 v 1177.3 c -1820.9,0 -3202.2,-125.6 -4144,-376.7 -2762.7,-784.9 -4144,-2527.2 -4144,-5227.1 z m -8099.6,-941.8 c 0,2166.2 533.7,4018.4 1601.1,5556.7 1067.4,1538.3 2527.2,2699.9 4379.5,3484.7 1695.2,722.1 3782.9,1240.1 6263,1554 847.6,94.2 2228.9,219.8 4144,376.7 v 800.6 c 0,2009.2 -219.8,3359.1 -659.3,4049.8 -659.3,941.8 -1695.3,1412.7 -3108,1412.7 H 26512 c -1036,-94.2 -1930.7,-423.8 -2684.2,-988.9 -753.4,-565.1 -1240.1,-1350 -1459.8,-2354.5 -125.6,-627.9 -439.5,-989 -941.8,-1083.1 l -5415.4,659.2 c -533.7,125.6 -800.5,408.2 -800.5,847.7 0,94.1 15.6,204 47,329.6 533.7,2794 1844.4,4866 3932.1,6216 2087.7,1349.9 4528.5,2103.3 7322.6,2260.3 h 1177.3 c 3578.8,0 6372.9,-926.1 8382.1,-2778.3 315.1,-315.4 606.3,-653.8 871.2,-1012.5 266.8,-361 478.7,-682.8 635.7,-965.3 156.9,-282.6 298.2,-690.7 423.8,-1224.4 125.5,-533.7 219.7,-902.6 282.5,-1106.6 62.8,-204.1 109.9,-643.6 141.3,-1318.6 31.4,-674.9 47.1,-1075.2 47.1,-1200.8 V 26088.2 c 0,-816.2 117.7,-1561.9 353.2,-2236.8 235.4,-675 463,-1161.6 682.8,-1459.8 219.7,-298.2 580.8,-777 1083.1,-1436.3 188.3,-282.5 282.5,-533.6 282.5,-753.4 0,-251.2 -125.6,-470.9 -376.7,-659.3 -2605.7,-2260.3 -4018.4,-3484.7 -4238.1,-3673.1 -376.8,-282.5 -832,-313.9 -1365.7,-94.1 -439.5,376.7 -824.1,737.7 -1153.7,1083 -329.6,345.4 -565.1,596.5 -706.4,753.5 -141.2,156.9 -368.9,463 -682.8,918.3 -313.9,455.2 -533.7,761.3 -659.2,918.2 -1758.1,-1915 -3484.7,-3107.9 -5180,-3578.9 -1067.4,-313.9 -2385.9,-470.9 -3955.6,-470.9 -2417.4,0 -4403,745.6 -5957,2236.8 -1554,1491.3 -2331,3602.5 -2331,6333.7 z M 94.1797,10548.3 c 156.9533,251.1 408.0863,266.9 753.4493,47.1 C 8696.03,6043.3 17235.2,3767.3 26464.9,3767.3 c 6153.1,0 12227.8,1145.8 18224.1,3437.6 156.9,62.7 384.5,156.9 682.8,282.5 298.2,125.6 510.1,219.8 635.7,282.6 470.9,188.3 839.8,94.1 1106.6,-282.6 266.8,-376.7 180.5,-722 -259,-1036 C 46290,6043.3 45568,5572.4 44689,5038.7 41989.1,3437.6 38975.3,2197.6 35647.6,1318.6 32319.8,439.504 29070.6,0 25899.8,0 21002.4,0 16371.8,855.504 12008.1,2566.5 7644.36,4277.4 3735.84,6686.9 282.547,9794.9 94.1797,9951.8 0,10108.8 0,10265.8 c 0,94.1 31.3633,188.3 94.1797,282.5"
         style="fill:#100f0d;fill-opacity:1;fill-rule:nonzero;stroke:none"
         id="path14" /></g></g></svg>
