<?xml version="1.0" encoding="UTF-8" standalone="no"?>
<svg
   xmlns:dc="http://purl.org/dc/elements/1.1/"
   xmlns:cc="http://creativecommons.org/ns#"
   xmlns:rdf="http://www.w3.org/1999/02/22-rdf-syntax-ns#"
   xmlns:svg="http://www.w3.org/2000/svg"
   xmlns="http://www.w3.org/2000/svg"
   xmlns:sodipodi="http://sodipodi.sourceforge.net/DTD/sodipodi-0.dtd"
   xmlns:inkscape="http://www.inkscape.org/namespaces/inkscape"
   version="1.1"
   id="svg2"
   xml:space="preserve"
   width="2208.5867"
   height="1018.7467"
   viewBox="0 0 2208.5867 1018.7467"
   sodipodi:docname="blue-apron-seeklogo.com.eps"><metadata
     id="metadata8"><rdf:RDF><cc:Work
         rdf:about=""><dc:format>image/svg+xml</dc:format><dc:type
           rdf:resource="http://purl.org/dc/dcmitype/StillImage" /></cc:Work></rdf:RDF></metadata><defs
     id="defs6" /><sodipodi:namedview
     pagecolor="#ffffff"
     bordercolor="#666666"
     borderopacity="1"
     objecttolerance="10"
     gridtolerance="10"
     guidetolerance="10"
     inkscape:pageopacity="0"
     inkscape:pageshadow="2"
     inkscape:window-width="640"
     inkscape:window-height="480"
     id="namedview4" /><g
     id="g10"
     inkscape:groupmode="layer"
     inkscape:label="ink_ext_XXXXXX"
     transform="matrix(1.3333333,0,0,-1.3333333,0,1018.7467)"><g
       id="g12"
       transform="scale(0.1)"><path
         d="m 5207.66,2494.55 c 0,-387.31 -2.73,-774.66 2.1,-1161.92 1.08,-86.59 -27.37,-144.24 -89.48,-200.85 C 4618.28,674.25 4035.58,369.93 3369.36,246.23 2177.05,24.8281 1092.8,271.309 135.336,1032.6 37.5664,1110.33 -1.03516,1192.48 0.0195313,1320.26 6.61719,2117.12 3.35156,2914.07 3.33594,3710.99 c 0,40.97 -3.820315,76.88 42.13676,106.59 576.5783,372.73 913.9373,914.28 1092.7973,1564.92 117.32,426.77 159.72,863.96 173.49,1304.79 7.99,255.87 18.61,511.67 24.76,767.57 1.29,53.9 19.91,77.53 72.51,89.98 143.49,33.93 287.48,64.61 432.31,92.3 55.71,10.65 70.76,-1.82 73.76,-58.03 18.98,-355.69 41.92,-711.16 62.55,-1066.77 7.04,-121.45 5.71,-121.55 122.61,-121.55 348.31,-0.01 696.62,1.55 1044.9,-1.48 61.02,-0.53 80.14,14.9 83.4,77.39 19.29,369.66 44.93,738.99 64.27,1108.64 3.29,62.89 21.09,72.16 79.47,60.88 142.12,-27.44 283.56,-57.24 424.44,-90.49 50.33,-11.88 73.15,-30.45 74.5,-87.42 7.24,-303.24 15.55,-606.56 30.56,-909.5 28.96,-584.4 109.86,-1158.34 362.99,-1695.18 198.2,-420.33 485.62,-764.65 874.74,-1020.28 54.46,-35.78 69.88,-73.37 69.47,-135.07 -2.61,-401.23 -1.34,-802.48 -1.34,-1203.73"
         style="fill:#2c3264;fill-opacity:1;fill-rule:nonzero;stroke:none"
         id="path14" /><path
         d="m 8091.36,5994.16 c 211.94,-87.76 352.3,-239.02 437.78,-442.33 198.56,-472.26 -39.46,-963.02 -534.08,-1101.14 -123.81,-34.57 -250.51,-54.67 -379.05,-54.93 -364.69,-0.73 -729.36,0.11 -1093.91,14.2 -60.45,2.33 -83.05,19.17 -82.95,82.03 1.52,922.03 1.28,1844.07 0.4,2766.1 -0.05,50.38 12.65,79.89 68.94,79.85 375.64,-0.25 751.2,30.86 1126.84,5.83 179.87,-11.98 348.35,-62.2 506.74,-152.66 382.4,-218.39 451.53,-893.07 -1.43,-1166.1 -14.17,-8.55 -28.06,-17.55 -49.28,-30.85"
         style="fill:#2c3264;fill-opacity:1;fill-rule:nonzero;stroke:none"
         id="path16" /><path
         d="m 7444.73,1523.66 c -136.49,0 -273.1,-3.19 -409.42,1.71 -48.28,1.74 -62.04,-17.72 -73.38,-57.09 -47.75,-165.77 -99.37,-330.44 -145.67,-496.6 -13,-46.649 -32.37,-68.348 -83.15,-74.039 -164.36,-18.43 -327.33,-20.539 -490.14,13.179 -70.67,14.641 -96.92,40.02 -70.24,120.46 301.16,908.07 598.84,1817.3 895.76,2726.77 16.01,49.03 37.26,70.16 91.16,75.15 217.04,20.08 433.38,21.41 650.23,-1.41 50.04,-5.27 77.25,-21 94.07,-73.63 292.92,-916.6 587.82,-1832.57 884.69,-2747.9 15.95,-49.182 -0.77,-64.709 -39.32,-79.971 -169.3,-67.019 -341.76,-73.309 -515.47,-23.019 -83.32,24.121 -131.37,90.058 -168.53,164.41 -59.03,118.07 -88.64,246.02 -121.69,372.42 -15.44,59.05 -36.8,85.33 -106.25,80.72 -130.37,-8.65 -261.71,-2.49 -392.65,-2.49 0,0.44 0,0.89 0,1.33"
         style="fill:#2c3264;fill-opacity:1;fill-rule:nonzero;stroke:none"
         id="path18" /><path
         d="m 8917.83,1534.07 c 0.01,479.28 1.46,958.58 -1.47,1437.84 -0.47,77.06 23.62,106.95 100.64,100.42 66.36,-5.63 133.34,2.13 199.9,-10.27 64.73,-12.07 119.14,-42.13 173.39,-77.78 44.03,-28.94 56.96,-108.21 109.21,-100.16 45.59,7.03 81.84,63.2 126.24,91.29 314.72,199.12 842.36,230.63 1062.66,-294.81 189.9,-453.12 199,-919.3 -27.7,-1366.27 -197.9,-390.119 -595.8,-536.42 -1005.17,-386.51 -64.94,23.782 -83.63,21.852 -82.01,-54.3 3.9,-183.719 3.34,-367.79 -3.67,-551.411 C 9561.02,90.7695 9464.07,1.67188 9235.47,1.60156 c -78.03,-0.03125 -156.29,3.75782 -234,-1.171872 -68,-4.308598 -85.06,23.359412 -84.78,87.441412 2.09,482.0589 1.13,964.1289 1.14,1446.1989"
         style="fill:#2c3264;fill-opacity:1;fill-rule:nonzero;stroke:none"
         id="path20" /><path
         d="m 11663.5,5726.88 c 0,-239.57 -0.6,-479.14 0.3,-718.71 0.5,-99.58 17.3,-195.09 94,-267.9 22.5,-21.31 22.7,-42.06 11.1,-67.25 -8.1,-17.68 -14.1,-36.35 -22.7,-53.82 -134.3,-275.95 -194.6,-298.62 -508.2,-130.13 -56.7,30.52 -100.3,81.48 -131.9,137.42 -28.7,50.91 -49.5,40.88 -87.2,9.37 -160.3,-133.88 -333.2,-243.86 -550.6,-253.59 -303.3,-13.58 -512.12,136.61 -598.12,426.78 -35.97,121.37 -45.57,246.03 -46.17,371.39 -1.38,284.13 -1.11,568.28 -0.14,852.42 0.44,129.96 -16.06,255.99 -81.92,370.33 -16.59,28.79 -10.1,41.79 12.15,61.18 133.04,115.88 440.3,152.63 594.7,69.08 83.3,-45.1 119.5,-122.82 135.4,-210.08 10.8,-59.92 15.7,-121.66 16,-182.63 1.6,-286.91 0.7,-573.85 0.7,-860.77 0.1,-25.07 0.3,-50.14 0.5,-75.21 1.5,-207.91 100.8,-264.05 313.9,-202.29 141.2,40.88 176.5,104.82 176.5,249.48 0,403.93 1.7,807.87 -1.6,1211.77 -0.6,69.19 21.3,89.11 87.8,95 172.7,15.33 344.5,13.86 516.8,-2.61 51,-4.87 70.7,-21.88 70,-77.11 -3.1,-250.67 -1.3,-501.41 -1.3,-752.12"
         style="fill:#2c3264;fill-opacity:1;fill-rule:nonzero;stroke:none"
         id="path22" /><path
         d="m 15270,2819.19 c 92.2,76.62 179.2,141.23 278.3,186.91 448.6,206.63 855,-21.24 913.2,-511.28 18.2,-152.75 12.8,-306.06 13.2,-459.22 0.5,-206.27 0.1,-412.53 0.1,-618.79 0,-124.05 15.1,-245.25 79.5,-354.13 19.2,-32.49 9.2,-47.23 -15.3,-68.09 -133.9,-113.719 -424.2,-152.461 -579.6,-73.238 -113.1,57.699 -150.5,164.568 -152.8,279.008 -6.4,325.95 -4.1,652.07 -6.6,978.11 -0.4,52.72 -3.7,106.07 -12.7,157.92 -17.5,101 -70.9,143.05 -174.1,141.5 -111.9,-1.67 -201.4,-56.76 -286,-122.9 -29.8,-23.26 -21.1,-55.27 -21.1,-84.83 -0.4,-423.68 -2.6,-847.37 1.9,-1271 0.8,-75.73 -25.1,-92.808 -92.7,-99.019 -164.4,-15.09 -327.8,-14.121 -492.1,0.281 -64.5,5.648 -89.6,22.41 -89.3,93.437 2.9,660.581 2.7,1321.191 0.2,1981.781 -0.3,73.97 23.5,102.52 96.2,96.48 44.3,-3.68 89.3,-2.64 133.7,-0.34 188.9,9.76 332.4,-55.67 406,-252.59"
         style="fill:#2c3264;fill-opacity:1;fill-rule:nonzero;stroke:none"
         id="path24" /><path
         d="m 14429.7,1976.1 c -1.7,-151.49 -17.8,-300.42 -62.2,-445.35 -115.8,-378.74 -360.5,-616.09 -759.9,-668.098 -342.6,-44.621 -655.7,20.387 -896.4,293.598 -111.1,126.02 -177.3,275.75 -213.8,438.34 -57,253.77 -58.5,508.95 -0.5,762.2 108.7,474.12 444.7,742.47 931.8,750.07 454.3,7.08 795.9,-231.56 930.8,-653.92 23.6,-73.79 40.2,-150.66 51.2,-227.39 11.8,-82.37 13.1,-166.24 19,-249.45"
         style="fill:#2c3264;fill-opacity:1;fill-rule:nonzero;stroke:none"
         id="path26" /><path
         d="m 13117.3,5266.12 c -164.4,-0.02 -328.7,-2.29 -493,1.22 -56.9,1.22 -64.9,-21.19 -58.5,-69.53 28.5,-214.98 153.5,-326.06 370.1,-328.38 172.7,-1.86 336.1,43.44 495.5,102 53.5,19.65 80.7,8.47 110.6,-34.32 70.4,-100.43 141.2,-217.66 113.8,-329.86 -20.5,-84.05 -150.4,-111.61 -239.9,-147.36 -261.8,-104.6 -534.7,-133.28 -811.5,-87.23 -329.1,54.75 -551.8,246.6 -647.4,566.19 -106.8,357.25 -116.9,720.13 6.9,1076.07 118.6,341.21 363.5,541.92 723.6,584.21 340.1,39.94 643.7,-36.99 863,-324.12 150.1,-196.58 181.9,-425.82 171.5,-664.89 -3.9,-89.07 -15.5,-176.99 -30.9,-264.95 -10.6,-60.16 -33.2,-82.84 -97.6,-80.73 -158.6,5.2 -317.5,1.71 -476.2,1.68"
         style="fill:#2c3264;fill-opacity:1;fill-rule:nonzero;stroke:none"
         id="path28" /><path
         d="m 8732.02,6183.49 c 0,423.27 1.57,846.55 -1.48,1269.81 -0.54,74.82 17.84,107.86 97.88,101.58 94.15,-7.4 189.37,-1.38 283.48,-9.05 148.26,-12.08 224.99,-85.11 256.44,-230.08 12.51,-57.7 14.49,-115.74 14.47,-174.3 -0.18,-665.55 -0.17,-1331.09 -0.11,-1996.63 0.02,-182.42 48.8,-233.34 232.71,-232.96 53.25,0.11 79.35,-14.07 92.79,-68.4 28.49,-115.16 34.64,-230.78 24.99,-348.02 -2.31,-28.16 -5.86,-56.5 -42.83,-61.74 -184.82,-26.21 -370.57,-53.82 -556.82,-27.47 -256.5,36.28 -372.76,176.82 -398,465.78 -3.38,38.76 -3.36,77.88 -3.39,116.84 -0.22,398.21 -0.14,796.42 -0.13,1194.64"
         style="fill:#2c3264;fill-opacity:1;fill-rule:nonzero;stroke:none"
         id="path30" /><path
         d="m 11659.1,2697.3 c 52.6,99.32 100.5,183.46 175.6,247.82 161.4,138.31 349.2,134.21 545.3,111.41 94.1,-10.94 104.2,-50.68 91.2,-130.54 -25.2,-154.43 -59.4,-304.93 -124.1,-448.56 -24.1,-53.59 -50.5,-66.88 -106.5,-49.93 -178.8,54.22 -334.8,22.27 -455.9,-131.17 -29,-36.84 -42.4,-74.01 -42.2,-121.69 1.7,-395.49 -0.5,-791 2.5,-1186.48 0.5,-61.34 -17.6,-80.949 -77.3,-86.941 -172.5,-17.309 -344.2,-15.86 -516.7,0.113 -60,5.559 -77.4,25.969 -77.2,87.078 1.6,459.5 1,919.02 -3.4,1378.49 -1.2,127.59 -35.7,248.46 -132.4,341.19 -22.3,21.45 -23.5,41.75 -12.8,66.66 16.4,38.29 29.7,78.46 50.4,114.25 126.2,217.52 119.4,218.41 365.8,132.01 149.3,-52.34 243.5,-170.38 317.7,-323.71"
         style="fill:#2c3264;fill-opacity:1;fill-rule:nonzero;stroke:none"
         id="path32" /><path
         d="m 7123.09,5292.37 c 0.03,116.98 0.72,233.97 -0.39,350.94 -0.33,35.34 4.56,58.22 49.02,56.27 136.11,-5.98 272.91,10.11 408.58,-10.87 191.33,-29.6 315.94,-183.08 317.7,-389.74 1.98,-233.48 -103.72,-375.77 -306.27,-411.43 -140.9,-24.81 -283.21,-10.66 -424.86,-15.09 -49.89,-1.56 -43.71,30.28 -43.75,60.63 -0.13,119.77 -0.05,239.53 -0.03,359.29"
         style="fill:#ffffff;fill-opacity:1;fill-rule:nonzero;stroke:none"
         id="path34" /><path
         d="m 7123.11,6528.33 c -0.02,97.53 -0.65,195.06 0.46,292.58 0.25,21.89 -9.54,48.65 36.12,45.82 113.82,-7.07 228.61,-0.34 342.14,-9.77 181.44,-15.05 281.58,-136.9 281.36,-329.68 -0.22,-191.09 -102.99,-318.72 -279.55,-333.69 -110.74,-9.4 -222.73,-3 -334.04,-7.08 -46.75,-1.71 -47.07,24.22 -46.77,57.59 0.85,94.74 0.3,189.48 0.28,284.23"
         style="fill:#ffffff;fill-opacity:1;fill-rule:nonzero;stroke:none"
         id="path36" /><path
         d="m 7461.08,3196.08 c 31.52,-120.28 62.26,-240.77 94.74,-360.79 64.59,-238.64 129.38,-477.22 196.03,-715.28 11.1,-39.67 16.73,-59.5 -38.53,-58.41 -175.18,3.47 -350.46,1.82 -525.7,0.88 -29.06,-0.16 -50.42,-1.5 -37.87,38.69 112.41,359.93 205.54,725.13 311.33,1094.91"
         style="fill:#ffffff;fill-opacity:1;fill-rule:nonzero;stroke:none"
         id="path38" /><path
         d="m 10137.5,2001.67 c -1.3,-153.42 -8.3,-306.31 -64.7,-451.45 -77.35,-199.04 -331.73,-247.04 -481.98,-92.85 -18.36,18.85 -15.44,40.29 -15.45,62.13 -0.11,275.58 0.63,551.17 -0.88,826.74 -0.23,42.64 13.24,74.2 43.43,102.99 53.27,50.8 111.6,91.71 184.25,109.2 130.04,31.3 216.43,-8.53 270.63,-131.08 59.9,-135.51 64,-280.55 64.7,-425.68"
         style="fill:#ffffff;fill-opacity:1;fill-rule:nonzero;stroke:none"
         id="path40" /><path
         d="m 13736,1974.57 c 1.5,-145.45 -5.8,-295.6 -52.4,-440.45 -39.3,-121.88 -116.1,-177.6 -241.2,-180.35 -131.7,-2.9 -218.5,45.77 -251.6,173.74 -74.8,289.36 -86.7,583.19 -6.3,873.88 30.6,110.59 102.1,191.68 229.7,198.95 146.8,8.36 229.6,-49 273.8,-190.81 43.6,-140.02 48.4,-284.63 48,-434.96"
         style="fill:#ffffff;fill-opacity:1;fill-rule:nonzero;stroke:none"
         id="path42" /><path
         d="m 12837.3,5730.02 c -75,-0.08 -150,1.55 -225,-0.75 -39.8,-1.22 -54.7,10.93 -50.7,52.53 6.1,63.99 17,126.71 39.1,186.79 37.1,101 108.4,159.1 218.3,163.35 110.3,4.27 194,-38.9 244.3,-139.83 3.7,-7.46 7.9,-14.67 11.2,-22.32 27.7,-64.94 55.1,-140.26 33.5,-201.7 -29.7,-84.44 -118.5,-21.91 -179.3,-36.78 -28.9,-7.04 -60.8,-1.21 -91.4,-1.29"
         style="fill:#ffffff;fill-opacity:1;fill-rule:nonzero;stroke:none"
         id="path44" /></g></g></svg>
