<?xml version="1.0" encoding="UTF-8" standalone="no"?>
<svg
   xmlns:dc="http://purl.org/dc/elements/1.1/"
   xmlns:cc="http://creativecommons.org/ns#"
   xmlns:rdf="http://www.w3.org/1999/02/22-rdf-syntax-ns#"
   xmlns:svg="http://www.w3.org/2000/svg"
   xmlns="http://www.w3.org/2000/svg"
   xmlns:sodipodi="http://sodipodi.sourceforge.net/DTD/sodipodi-0.dtd"
   xmlns:inkscape="http://www.inkscape.org/namespaces/inkscape"
   version="1.1"
   id="svg2"
   xml:space="preserve"
   width="628.66669"
   height="458.07999"
   viewBox="0 0 628.66669 458.07999"
   sodipodi:docname="homechef-seeklogo.com.eps"><metadata
     id="metadata8"><rdf:RDF><cc:Work
         rdf:about=""><dc:format>image/svg+xml</dc:format><dc:type
           rdf:resource="http://purl.org/dc/dcmitype/StillImage" /></cc:Work></rdf:RDF></metadata><defs
     id="defs6" /><sodipodi:namedview
     pagecolor="#ffffff"
     bordercolor="#666666"
     borderopacity="1"
     objecttolerance="10"
     gridtolerance="10"
     guidetolerance="10"
     inkscape:pageopacity="0"
     inkscape:pageshadow="2"
     inkscape:window-width="640"
     inkscape:window-height="480"
     id="namedview4" /><g
     id="g10"
     inkscape:groupmode="layer"
     inkscape:label="ink_ext_XXXXXX"
     transform="matrix(1.3333333,0,0,-1.3333333,0,458.08)"><g
       id="g12"
       transform="scale(0.1)"><path
         d="M 1220.57,585.5 V 3.10156 h 111.52 V 319.09 L 1496.28,151.809 1660.47,319.09 V 3.10156 H 1772 V 433.711 585.5 l -275.72,-285 -275.71,285 z m 793.06,-483.27 v 130.122 h 223.05 V 340.77 h -223.05 v 139.41 h 278.81 v 99.129 H 1902.11 V 3.10156 h 396.53 V 102.23 H 2013.63 Z M 3590.47,576.199 V 343.871 H 3330.24 V 576.199 H 3218.72 V 3.10156 h 111.52 V 229.238 h 260.23 V 3.10156 h 111.52 V 576.199 H 3590.47 Z M 3943.62,102.23 v 130.122 h 207.56 V 340.77 h -207.56 v 139.41 h 278.81 v 99.129 H 3832.1 V 3.10156 h 396.53 V 102.23 H 3943.62 Z M 4442.39,3.10156 V 223.051 h 204.46 V 331.492 H 4442.39 V 480.18 H 4715 v 99.129 H 4330.86 V 3.10156 h 111.53 z M 851.926,467.789 c -96.035,0 -176.582,-80.551 -176.582,-176.59 0,-96.027 80.547,-176.578 176.582,-176.578 96.035,0 176.574,80.551 176.574,176.578 0,96.039 -80.539,176.59 -176.574,176.59 z m 0,114.621 c 161.084,0 291.204,-130.121 291.204,-291.211 C 1143.13,130.121 1013.01,0 851.926,0 690.828,0 560.719,130.121 560.719,291.199 557.617,452.289 690.828,582.41 851.926,582.41 Z m 2047.704,0 c 77.45,0 151.81,-30.98 204.46,-83.648 l 6.2,-6.192 -80.54,-80.539 -6.21,6.188 c -34.07,34.07 -77.45,52.66 -123.91,52.66 -96.03,0 -176.57,-80.527 -176.57,-176.578 0,-96.02 80.54,-176.582 176.57,-176.582 46.46,0 89.84,18.59 123.91,52.66 l 6.21,6.211 80.54,-80.5509 -6.2,-6.1875 C 3048.34,34.082 2977.08,6.19922 2899.63,6.19922 c -161.09,0 -291.2,130.10978 -291.2,291.19878 0,154.891 130.11,285.012 291.2,285.012 z M 371.746,576.199 V 343.871 H 111.523 V 576.199 H 0 V 3.10156 H 111.523 V 229.238 H 371.746 V 3.10156 H 483.27 V 576.199 H 371.746 v 0"
         style="fill:#379e3d;fill-opacity:1;fill-rule:nonzero;stroke:none"
         id="path14" /><path
         d="m 3469.65,916.988 h -681.54 c -3.1,43.371 -9.29,114.622 -12.4,164.182 -12.39,223.04 15.5,793.06 6.2,1660.47 0,30.98 -37.17,43.37 -52.66,21.69 -117.72,-145.61 -179.68,-288.11 -207.56,-619.58 -15.5,-179.68 89.84,-517.35 117.71,-771.38 15.49,-139.4 9.3,-285 -6.19,-458.491 h -467.78 c -3.1,52.672 -6.2,105.331 -6.2,157.991 -9.28,210.66 -18.58,421.32 -27.88,631.98 -3.09,40.26 -6.19,99.13 15.49,133.21 9.3,12.39 18.59,27.88 27.89,40.27 15.48,24.78 27.87,52.66 37.17,80.54 24.78,71.25 43.37,151.8 46.46,229.25 v 3.1 3.09 c 0,6.2 0,12.4 0,18.59 v 3.1 l -30.98,501.86 c 0,18.58 -9.28,30.98 -27.87,30.98 -15.49,0 -34.08,-15.49 -34.08,-34.08 l -15.48,-573.11 c 0,-12.39 -9.3,-24.78 -21.69,-24.78 -12.4,0 -18.59,9.29 -18.59,21.68 l -12.39,579.31 c 0,9.3 -9.3,30.98 -30.98,30.98 -21.69,0 -24.79,-27.88 -24.79,-34.08 l -18.59,-573.11 c 0,-12.39 -9.29,-24.78 -21.68,-24.78 -12.39,0 -18.59,12.39 -18.59,24.78 l -12.39,570.01 c 0,18.59 -15.49,34.08 -30.98,34.08 -15.49,0 -27.88,-18.58 -27.88,-34.08 l -30.98,-498.76 v -3.09 c 0,-6.2 0,-12.4 0,-18.59 v -6.2 c 3.11,-77.45 21.69,-157.99 46.47,-229.25 9.3,-27.88 21.68,-55.76 37.18,-80.54 9.29,-15.49 18.58,-27.88 27.88,-40.28 21.68,-37.16 18.58,-92.93 15.49,-133.2 -9.3,-210.66 -18.59,-421.31 -27.88,-631.98 -3.1,-52.66 -6.2,-105.321 -6.2,-157.989 H 1248.45 V 2747.84 L 2357.5,3308.56 3472.73,2741.64 V 916.988 Z M 3578.08,2812.89 2354.4,3435.57 1140.02,2822.19 c -6.19,-3.1 -9.29,-6.19 -9.29,-12.39 V 802.359 H 3581.17 V 2803.6 c 0,0 3.1,6.2 -3.09,9.29"
         style="fill:#379e3d;fill-opacity:1;fill-rule:nonzero;stroke:none"
         id="path16" /><path
         d="m 2354.4,3435.57 v 0 0"
         style="fill:#379e3d;fill-opacity:1;fill-rule:nonzero;stroke:none"
         id="path18" /></g></g></svg>
