<?xml version="1.0" encoding="UTF-8" standalone="no"?>
<svg
   xmlns:dc="http://purl.org/dc/elements/1.1/"
   xmlns:cc="http://creativecommons.org/ns#"
   xmlns:rdf="http://www.w3.org/1999/02/22-rdf-syntax-ns#"
   xmlns:svg="http://www.w3.org/2000/svg"
   xmlns="http://www.w3.org/2000/svg"
   xmlns:sodipodi="http://sodipodi.sourceforge.net/DTD/sodipodi-0.dtd"
   xmlns:inkscape="http://www.inkscape.org/namespaces/inkscape"
   version="1.1"
   id="svg2"
   xml:space="preserve"
   width="170.66667"
   height="170.66667"
   viewBox="0 0 170.66667 170.66667"
   sodipodi:docname="hulu-seeklogo.com.eps"><metadata
     id="metadata8"><rdf:RDF><cc:Work
         rdf:about=""><dc:format>image/svg+xml</dc:format><dc:type
           rdf:resource="http://purl.org/dc/dcmitype/StillImage" /></cc:Work></rdf:RDF></metadata><defs
     id="defs6" /><sodipodi:namedview
     pagecolor="#ffffff"
     bordercolor="#666666"
     borderopacity="1"
     objecttolerance="10"
     gridtolerance="10"
     guidetolerance="10"
     inkscape:pageopacity="0"
     inkscape:pageshadow="2"
     inkscape:window-width="640"
     inkscape:window-height="480"
     id="namedview4" /><g
     id="g10"
     inkscape:groupmode="layer"
     inkscape:label="ink_ext_XXXXXX"
     transform="matrix(1.3333333,0,0,-1.3333333,0,170.66667)"><g
       id="g12"
       transform="scale(0.1)"><path
         d="m 1089.69,568.633 c 0,-46.875 -26.69,-79.16 -71.26,-79.16 v -0.379 h -69.778 c -48.386,0 -81.132,27.449 -81.132,79.539 v 127.445 h 71.269 v -121.39 c 0,-10.75 8.535,-19.446 19.082,-19.446 h 41.477 c 10.532,0 19.072,8.696 19.072,19.446 v 121.39 h 71.27 z M 813.484,489.094 h -71.796 v 300.238 h 71.796 z M 687.98,568.633 c 0,-46.875 -26.691,-79.16 -71.265,-79.16 v -0.379 h -69.774 c -48.406,0 -81.14,27.449 -81.14,79.539 v 127.445 h 71.277 v -121.39 c 0,-10.75 8.531,-19.446 19.082,-19.446 h 41.461 c 10.555,0 19.082,8.696 19.082,19.446 v 121.39 H 687.98 Z M 414.176,489.094 h -71.278 v 121.16 c 0,10.715 -8.519,19.387 -19.082,19.387 h -41.468 c -10.539,0 -19.09,-8.672 -19.09,-19.387 v -121.16 h -71.254 v 300.238 h 71.254 V 691.25 c 0,0 8.051,4.395 24.082,4.395 h 45.707 c 45.105,0 81.129,-21.118 81.129,-76.016 z M 0,1280 V 0 H 1280 V 1280 H 0"
         style="fill:#100f0d;fill-opacity:1;fill-rule:nonzero;stroke:none"
         id="path14" /><path
         d="m 1018.42,574.688 c 0,-10.75 -8.54,-19.446 -19.072,-19.446 h -41.477 c -10.547,0 -19.082,8.696 -19.082,19.446 v 121.39 H 867.52 V 568.633 c 0,-52.09 32.746,-79.539 81.132,-79.539 h 69.778 v 0.379 c 44.57,0 71.26,32.285 71.26,79.16 v 127.445 h -71.27 v -121.39"
         style="fill:#5ec56a;fill-opacity:1;fill-rule:nonzero;stroke:none"
         id="path16" /><path
         d="m 741.688,489.094 h 71.796 V 789.332 H 741.688 V 489.094"
         style="fill:#5ec56a;fill-opacity:1;fill-rule:nonzero;stroke:none"
         id="path18" /><path
         d="m 616.703,574.688 c 0,-10.75 -8.527,-19.446 -19.082,-19.446 H 556.16 c -10.551,0 -19.082,8.696 -19.082,19.446 v 121.39 H 465.801 V 568.633 c 0,-52.09 32.734,-79.539 81.14,-79.539 h 69.774 v 0.379 c 44.574,0 71.265,32.285 71.265,79.16 v 127.445 h -71.277 v -121.39"
         style="fill:#5ec56a;fill-opacity:1;fill-rule:nonzero;stroke:none"
         id="path20" /><path
         d="M 333.047,695.645 H 287.34 c -16.031,0 -24.082,-4.395 -24.082,-4.395 v 98.082 H 192.004 V 489.094 h 71.254 v 121.16 c 0,10.715 8.551,19.387 19.09,19.387 h 41.468 c 10.563,0 19.082,-8.672 19.082,-19.387 v -121.16 h 71.278 v 130.535 c 0,54.898 -36.024,76.016 -81.129,76.016"
         style="fill:#5ec56a;fill-opacity:1;fill-rule:nonzero;stroke:none"
         id="path22" /></g></g></svg>
