<?xml version="1.0" encoding="UTF-8" standalone="no"?>
<svg
   xmlns:dc="http://purl.org/dc/elements/1.1/"
   xmlns:cc="http://creativecommons.org/ns#"
   xmlns:rdf="http://www.w3.org/1999/02/22-rdf-syntax-ns#"
   xmlns:svg="http://www.w3.org/2000/svg"
   xmlns="http://www.w3.org/2000/svg"
   xmlns:sodipodi="http://sodipodi.sourceforge.net/DTD/sodipodi-0.dtd"
   xmlns:inkscape="http://www.inkscape.org/namespaces/inkscape"
   version="1.1"
   id="svg2"
   xml:space="preserve"
   width="258.66666"
   height="258.66666"
   viewBox="0 0 258.66666 258.66666"
   sodipodi:docname="Kaiser_Permanente.eps"><metadata
     id="metadata8"><rdf:RDF><cc:Work
         rdf:about=""><dc:format>image/svg+xml</dc:format><dc:type
           rdf:resource="http://purl.org/dc/dcmitype/StillImage" /></cc:Work></rdf:RDF></metadata><defs
     id="defs6" /><sodipodi:namedview
     pagecolor="#ffffff"
     bordercolor="#666666"
     borderopacity="1"
     objecttolerance="10"
     gridtolerance="10"
     guidetolerance="10"
     inkscape:pageopacity="0"
     inkscape:pageshadow="2"
     inkscape:window-width="640"
     inkscape:window-height="480"
     id="namedview4" /><g
     id="g10"
     inkscape:groupmode="layer"
     inkscape:label="ink_ext_XXXXXX"
     transform="matrix(1.3333333,0,0,-1.3333333,0,258.66667)"><g
       id="g12"
       transform="scale(0.1)"><path
         d="M 2.59766,1933.23 H 1930.16 V 5.66797 H 2.59766 V 1933.23"
         style="fill:#ffffff;fill-opacity:1;fill-rule:evenodd;stroke:none"
         id="path14" /><path
         d="m 438.828,1095.8 c -5.75,4.79 -12.457,9.58 -19.164,11.5 l -11.5,-225.179 55.578,155.229 c 5.746,23.95 -7.668,44.08 -24.914,58.45"
         style="fill:#227baf;fill-opacity:1;fill-rule:evenodd;stroke:none"
         id="path16" /><path
         d="m 346.84,1109.22 32.578,-224.224 32.578,224.224 c -19.164,6.7 -44.074,7.66 -65.156,0"
         style="fill:#227baf;fill-opacity:1;fill-rule:evenodd;stroke:none"
         id="path18" /><path
         d="m 320.012,1095.8 c -18.207,-14.37 -30.664,-34.5 -25.871,-57.49 L 349.715,883.082 339.176,1107.3 c -6.711,-1.92 -14.375,-6.71 -19.164,-11.5"
         style="fill:#227baf;fill-opacity:1;fill-rule:evenodd;stroke:none"
         id="path20" /><path
         d="m 206.941,1074.72 c 37.372,-65.16 75.7,-136.064 112.11,-198.345 -12.457,54.617 -25.871,145.645 -45.035,171.515 -22.036,30.66 -67.075,26.83 -67.075,26.83"
         style="fill:#227baf;fill-opacity:1;fill-rule:evenodd;stroke:none"
         id="path22" /><path
         d="M 140.828,1042.14 293.18,864.875 199.277,1073.76 c -24.914,-0.96 -45.996,-13.41 -58.449,-31.62"
         style="fill:#227baf;fill-opacity:1;fill-rule:evenodd;stroke:none"
         id="path24" /><path
         d="M 459.91,994.234 434.996,872.543 c 32.578,56.531 65.156,112.105 96.777,169.597 -30.664,-2.87 -61.324,-14.37 -71.863,-47.906"
         style="fill:#227baf;fill-opacity:1;fill-rule:evenodd;stroke:none"
         id="path26" /><path
         d="M 540.395,1042.14 459.91,862 601.723,1016.27 c -16.289,17.25 -37.371,24.91 -61.328,25.87"
         style="fill:#227baf;fill-opacity:1;fill-rule:evenodd;stroke:none"
         id="path28" /><path
         d="m 120.703,961.652 c 49.828,-38.328 99.656,-77.613 149.481,-115.941 L 136.035,1035.43 c -12.457,-21.08 -16.289,-45.989 -15.332,-73.778"
         style="fill:#227baf;fill-opacity:1;fill-rule:evenodd;stroke:none"
         id="path30" /><path
         d="m 618.969,994.234 c -2.875,5.746 -6.707,11.496 -11.496,16.286 L 484.82,843.793 c 48.868,36.414 95.821,72.824 141.813,110.191 0.961,14.375 -0.957,28.746 -7.664,40.25"
         style="fill:#227baf;fill-opacity:1;fill-rule:evenodd;stroke:none"
         id="path32" /><path
         d="m 121.664,884.039 129.356,-59.41 c -43.118,43.117 -86.239,84.324 -129.356,126.484 v -67.074"
         style="fill:#227baf;fill-opacity:1;fill-rule:evenodd;stroke:none"
         id="path34" /><path
         d="m 626.633,880.207 v 61.324 L 503.984,821.754 c 42.161,19.168 80.493,38.328 122.649,58.453"
         style="fill:#227baf;fill-opacity:1;fill-rule:evenodd;stroke:none"
         id="path36" /><path
         d="m 120.703,824.629 c 39.289,-8.621 82.406,-19.164 117.86,-26.828 l -117.86,77.613 v -50.785"
         style="fill:#227baf;fill-opacity:1;fill-rule:evenodd;stroke:none"
         id="path38" /><path
         d="m 626.633,821.754 v 46.953 c -36.41,-23.953 -74.738,-47.91 -108.274,-71.863 l 108.274,24.91"
         style="fill:#227baf;fill-opacity:1;fill-rule:evenodd;stroke:none"
         id="path40" /><path
         d="M 120.703,766.18 H 235.688 L 120.703,815.047 Z"
         style="fill:#227baf;fill-opacity:1;fill-rule:evenodd;stroke:none"
         id="path42" /><path
         d="m 626.633,766.18 v 45.035 C 589.266,794.926 556.688,781.512 521.234,766.18 h 105.399"
         style="fill:#227baf;fill-opacity:1;fill-rule:evenodd;stroke:none"
         id="path44" /><path
         d="m 587.348,1101.55 v 0 0 0"
         style="fill:#227baf;fill-opacity:1;fill-rule:evenodd;stroke:none"
         id="path46" /><path
         d="m 587.348,1101.55 c 1.918,68.03 -99.653,68.99 -97.735,0 -0.957,-63.24 100.61,-66.12 97.735,0"
         style="fill:#227baf;fill-opacity:1;fill-rule:evenodd;stroke:none"
         id="path48" /><path
         d="m 260.602,1137 c 2.875,69 -103.489,66.12 -99.653,0 -3.836,-68.99 106.36,-69.95 99.653,0"
         style="fill:#227baf;fill-opacity:1;fill-rule:evenodd;stroke:none"
         id="path50" /><path
         d="m 379.418,1123.59 c 40.246,-0.96 55.578,27.79 56.535,55.57 1.918,42.16 -24.914,59.41 -56.535,59.41 -31.617,0 -56.531,-18.2 -55.574,-59.41 0.957,-22.99 10.539,-54.61 55.574,-55.57"
         style="fill:#227baf;fill-opacity:1;fill-rule:evenodd;stroke:none"
         id="path52" /><path
         d="m 956.254,964.527 h 22.039 V 1091.97 H 956.254 V 964.527"
         style="fill:#227baf;fill-opacity:1;fill-rule:evenodd;stroke:none"
         id="path54" /><path
         d="m 914.098,1000.94 12.453,-36.413 h 22.996 l -44.078,127.443 h -27.785 l -37.371,-108.279 -36.411,45.989 48.868,62.29 h -25.872 l -45.035,-60.37 v 60.37 H 759.824 V 964.527 h 22.039 v 62.283 l 46.953,-62.283 h 4.789 v 0 h 21.083 l 12.457,36.413 z m -23.957,70.9 v 0 l 18.207,-52.7 h -35.457 l 17.25,52.7"
         style="fill:#227baf;fill-opacity:1;fill-rule:evenodd;stroke:none"
         id="path56" /><path
         d="m 1116.28,801.633 -22.04,92.945 h -39.29 V 766.18 c 11.5,0 22.04,0 22.04,0 v 109.234 l 27.79,-109.234 c 0,0 9.58,0 22.99,0 l 27.79,109.234 V 766.18 h 21.08 v 128.398 h -37.37 l -22.99,-92.945"
         style="fill:#227baf;fill-opacity:1;fill-rule:evenodd;stroke:none"
         id="path58" /><path
         d="M 1232.22,894.578 1188.14,766.18 h 22.04 l 11.5,37.367 h 46.95 l 12.46,-37.367 h 22.99 L 1260,894.578 Z m -4.79,-73.781 17.25,53.66 v 0 l 18.2,-53.66 h -35.45"
         style="fill:#227baf;fill-opacity:1;fill-rule:evenodd;stroke:none"
         id="path60" /><path
         d="m 1394.16,795.883 -50.79,98.695 h -29.71 V 766.18 c 10.54,0 21.09,0 21.09,0 v 96.777 l 50.78,-96.777 h 29.7 v 128.398 h -21.07 v -98.695"
         style="fill:#227baf;fill-opacity:1;fill-rule:evenodd;stroke:none"
         id="path62" /><path
         d="m 1813.85,785.344 h -52.71 v 35.453 h 38.33 v 19.164 h -38.33 v 35.453 c 4.79,0 47.91,0 47.91,0 v 19.164 c -13.41,0 -69.94,0 -69.94,0 V 766.18 h 74.74 v 19.164"
         style="fill:#227baf;fill-opacity:1;fill-rule:evenodd;stroke:none"
         id="path64" /><path
         d="m 1611.66,894.578 v 0 h -3.83 v -99.652 l -50.78,99.652 h -29.71 V 785.344 h -67.07 v 35.453 h 39.28 v 19.164 h -39.28 v 35.453 c 4.79,0 47.91,0 47.91,0 v 19.164 c -12.46,0 -69.95,0 -69.95,0 V 766.18 h 108.28 v 0 c 0.95,0 1.92,0 1.92,0 v 97.734 l 50.78,-97.734 h 29.7 v 109.234 c 13.42,0 27.79,0 39.29,0 V 766.18 h 22.04 v 109.234 h 38.33 l -0.96,19.164 h -115.95"
         style="fill:#227baf;fill-opacity:1;fill-rule:evenodd;stroke:none"
         id="path66" /><path
         d="m 1023.33,830.379 c 6.71,6.707 12.46,15.332 12.46,27.789 0,11.5 -5.75,21.078 -12.46,26.828 -7.67,6.707 -18.2,9.582 -37.369,9.582 h -36.414 v -54.617 0 -54.617 h -68.031 v 35.453 h 39.289 v 19.164 h -39.289 v 35.453 c 4.793,0 47.91,0 47.91,0 v 19.164 c -12.457,0 -69.949,0 -69.949,0 V 766.18 H 971.59 v 54.617 h 10.539 c 10.539,-16.289 32.581,-54.617 32.581,-54.617 h 25.87 l -34.5,56.535 c 7.67,0.957 12.46,3.832 17.25,7.664 z M 971.59,839 v 36.414 h 18.203 c 17.247,0 23.957,-6.707 23.957,-17.246 0,-12.457 -6.71,-19.168 -23.957,-19.168 H 971.59"
         style="fill:#227baf;fill-opacity:1;fill-rule:evenodd;stroke:none"
         id="path68" /><path
         d="m 1201.55,1018.19 h 11.5 c 9.59,-15.33 31.63,-53.663 31.63,-53.663 h 25.87 l -34.5,55.583 c 7.67,1.91 13.41,4.78 17.25,8.62 6.7,5.75 12.46,15.33 12.46,26.83 0,12.45 -4.8,21.08 -12.46,26.83 -7.67,6.7 -18.21,9.58 -36.41,9.58 h -37.37 v -53.66 0 -55.58 h -68.04 v 36.41 h 39.29 v 18.21 h -39.29 v 36.41 c 5.75,0 48.87,0 48.87,0 v 18.21 c -13.41,0 -69.94,0 -69.94,0 V 964.527 h 111.14 z m 0,20.12 v 35.45 h 19.17 c 16.29,0 23,-6.71 23,-18.2 0,-12.46 -6.71,-18.21 -23,-18.21 h -19.17 v 0.96"
         style="fill:#227baf;fill-opacity:1;fill-rule:evenodd;stroke:none"
         id="path70" /><path
         d="m 833.605,884.996 c -7.664,6.707 -18.207,9.582 -36.41,9.582 H 759.824 V 766.18 h 22.039 v 52.703 h 15.332 c 18.203,0 28.746,2.871 36.41,9.578 6.708,6.707 12.458,16.293 12.458,28.746 0,11.5 -4.793,21.082 -12.458,27.789 z M 800.07,838.043 h -18.207 v 37.371 h 18.207 c 17.246,0 23.953,-7.668 23.953,-18.207 0,-11.496 -7.668,-19.164 -23.953,-19.164"
         style="fill:#227baf;fill-opacity:1;fill-rule:evenodd;stroke:none"
         id="path72" /><path
         d="m 1076.03,1000.94 c 0,18.2 -11.49,29.7 -33.54,38.33 -17.24,5.75 -25.87,10.54 -25.87,21.08 0,7.66 7.67,16.29 23.96,16.29 10.54,0 22.04,-3.84 26.83,-6.71 v 18.21 c -4.79,2.87 -16.29,5.74 -26.83,5.74 -27.79,0 -45.998,-15.33 -45.998,-35.45 0,-19.16 14.378,-29.7 35.458,-37.37 16.29,-5.75 23.95,-11.5 23.95,-22.037 0,-10.539 -9.58,-18.207 -24.91,-18.207 -11.5,0 -26.83,3.832 -34.498,9.582 v -20.121 c 6.708,-3.832 20.128,-7.664 33.538,-7.664 32.58,0 47.91,18.203 47.91,38.327"
         style="fill:#227baf;fill-opacity:1;fill-rule:evenodd;stroke:none"
         id="path74" /><path
         d="m 1829.18,793.008 c 0,12.457 9.58,22.039 22.03,22.039 12.46,0 22.04,-9.582 22.04,-22.039 0,-12.457 -9.58,-22.039 -22.04,-22.039 -12.45,0 -22.03,9.582 -22.03,22.039 z m 22.03,-26.828 c 14.38,0 26.84,11.496 26.84,26.828 0,15.332 -12.46,26.832 -26.84,26.832 -14.37,0 -26.82,-11.5 -26.82,-26.832 0,-15.332 12.45,-26.828 26.82,-26.828 z m -5.74,24.914 h 5.74 l 7.67,-13.418 h 5.75 l -9.58,13.418 c 4.79,0.957 8.62,2.875 8.62,8.621 0,5.75 -3.83,8.625 -11.5,8.625 h -11.49 v -30.664 h 4.79 z m 0,3.832 v 9.582 h 6.7 c 2.88,0 6.71,-0.961 6.71,-4.793 0,-4.789 -3.83,-4.789 -7.67,-4.789 h -5.74"
         style="fill:#227baf;fill-opacity:1;fill-rule:evenodd;stroke:none"
         id="path76" /></g></g></svg>
