<?xml version="1.0" encoding="UTF-8" standalone="no"?>
<svg
   xmlns:dc="http://purl.org/dc/elements/1.1/"
   xmlns:cc="http://creativecommons.org/ns#"
   xmlns:rdf="http://www.w3.org/1999/02/22-rdf-syntax-ns#"
   xmlns:svg="http://www.w3.org/2000/svg"
   xmlns="http://www.w3.org/2000/svg"
   xmlns:sodipodi="http://sodipodi.sourceforge.net/DTD/sodipodi-0.dtd"
   xmlns:inkscape="http://www.inkscape.org/namespaces/inkscape"
   version="1.1"
   id="svg2"
   xml:space="preserve"
   width="1228.0533"
   height="231.13333"
   viewBox="0 0 1228.0533 231.13333"
   sodipodi:docname="meundies-seeklogo.com.eps"><metadata
     id="metadata8"><rdf:RDF><cc:Work
         rdf:about=""><dc:format>image/svg+xml</dc:format><dc:type
           rdf:resource="http://purl.org/dc/dcmitype/StillImage" /></cc:Work></rdf:RDF></metadata><defs
     id="defs6" /><sodipodi:namedview
     pagecolor="#ffffff"
     bordercolor="#666666"
     borderopacity="1"
     objecttolerance="10"
     gridtolerance="10"
     guidetolerance="10"
     inkscape:pageopacity="0"
     inkscape:pageshadow="2"
     inkscape:window-width="640"
     inkscape:window-height="480"
     id="namedview4" /><g
     id="g10"
     inkscape:groupmode="layer"
     inkscape:label="ink_ext_XXXXXX"
     transform="matrix(1.3333333,0,0,-1.3333333,0,231.13333)"><g
       id="g12"
       transform="scale(0.1)"><path
         d="m 6796.96,999.543 h 317.83 V 42.2305 h -317.83 z m -1838.67,25.817 c 72.2,28.35 152.45,31.62 228.57,20.42 88.04,-13.19 170.53,-64.569 216.5,-141.507 42.32,-68.636 56.63,-150.562 56.94,-230.152 -0.16,-211.262 0,-422.519 -0.11,-633.7812 h -312.03 c -0.15,182.9492 0.26,365.9492 -0.15,548.9492 -0.71,59.012 -8.25,124.961 -53.42,167.723 -64.51,55.254 -178.05,47.871 -228,-23.621 -30.31,-41.09 -39.01,-93.641 -40.08,-143.539 -0.05,-183.153 0,-366.411 0,-549.5122 -102.09,-0.0585 -204.18,0 -306.17,0 -0.26,330.0002 -0.1,659.9492 -0.1,990.0102 h 304.33 c -0.04,-36.561 0.26,-73.276 -0.2,-109.838 38.6,41.707 80.1,83.358 133.92,104.848 m 3496.92,-81.165 c 82.09,87.325 207.55,116.905 323.64,115.225 113.75,2.24 235.45,-23.27 322.11,-101.529 58.87,-52.09 90.29,-129.231 95.47,-206.731 -101.63,-0.047 -203.16,-0.152 -304.75,0 -6.67,33.051 -30.19,63.039 -64.1,70.317 -42.41,9.832 -94.3,10.234 -127.91,-21.536 -23.98,-22.507 -27.8,-68.179 3.57,-86 51.63,-24.851 109.58,-32.281 164.98,-45.57 93.43,-19.961 195.07,-37.883 265.99,-107.742 53.41,-48.527 74.29,-121.547 76.22,-191.758 V 349.77 c -1.93,-87.219 -39.46,-174.29 -108.2,-229.438 -92.82,-78.7734 -218.9,-104.0234 -337.79,-97.8632 -106.16,1.9804 -218.03,27.1914 -299.19,99.2932 -59.79,52.289 -87.23,130.699 -97.1,207.386 104.94,0.25 209.88,-0.046 314.82,0.153 31.52,-60.289 112.58,-65.332 170.63,-46.742 43.9,11.25 69.45,74.492 34.63,107.902 -34.58,28.25 -81.32,32.48 -123.43,42 -95.01,18.539 -195.43,33.398 -276.74,90.078 -61.31,43.43 -106.32,112.992 -109.68,189.32 -10.39,84.11 17.56,171.282 76.83,232.336 M 7642.05,780.391 c -46.39,-27.293 -78.87,-72.672 -99.14,-121.59 154.13,-0.262 308.26,-0.313 462.44,0 -18.73,58.187 -59.16,110.332 -115.78,135.437 -78.27,34.114 -174,30.45 -247.52,-13.847 m 35.03,271.699 c 134.27,22.05 278.42,-2.04 392.53,-78.317 108.15,-70.113 183.86,-185.539 211.06,-311.054 17.25,-70.117 12.37,-142.629 12.88,-214.071 -253.12,-0.046 -506.23,0.211 -759.3,-0.046 14.67,-71.493 63.6,-135.293 130.97,-164.411 89.81,-40.382 208.35,-30.05 277.25,45.207 108.25,-0.296 216.61,0 324.86,-0.25 C 8225.27,232.809 8157.7,145.43 8066.96,90.6016 7967.77,28.9414 7847.76,8.21094 7732.38,14.6797 c -140.95,8.0391 -280.87,71.4297 -370.43,182.0823 -86.72,104.379 -121.19,244.41 -113.1,378.07 5.91,102.348 41.35,203.469 104.54,284.582 78.06,102.5 196.96,171.446 323.69,192.676 m -774.42,456.89 c 47.97,13.13 101.49,8.4 144.96,-16.44 60.9,-32.8 100.16,-102.05 96.24,-171.25 -0.05,-84.98 -66.85,-163.4 -150.11,-178.67 -67.56,-14.71 -141.96,11.87 -185.03,65.94 -45.12,54.33 -53.68,134.83 -24.39,198.58 22.09,49.14 66.86,86.51 118.33,101.84 M 6048.15,776.16 c -66.5,-14.258 -124.95,-60.59 -154.08,-122.101 -49.8,-99.848 -25.41,-234.321 64.71,-303.219 87.07,-69.66 226.6,-61.711 302.36,21.23 87.32,91.399 86.77,250.719 -0.67,341.871 -53.45,56.11 -137.07,80.043 -212.32,62.219 m 265.33,737.66 c 100.77,0 201.64,0.1 302.51,0 -0.2,-489.94 -0.11,-979.781 -0.11,-1469.6091 -100.15,0 -200.31,-0.1015 -300.46,0 -0.05,36.1993 -0.05,72.3981 -0.05,108.6091 C 6241.79,70.0781 6131.8,23.082 6021.26,24.7617 5895.75,19.8086 5772.57,80.7109 5692.28,175.879 c -71.13,82.902 -109.73,190.141 -119.4,298.09 -14.97,148.621 22.14,305.554 116.29,423.379 62.38,79.23 153.82,135.792 253.68,152.502 131.27,24.03 276.48,-13.6 370.74,-110.647 -0.26,191.557 0,383.117 -0.11,574.617 M 3301,1515.75 c 107.23,-0.05 214.51,0.11 321.65,0 V 596.672 c 0.56,-44.043 -3.47,-89.051 9.11,-131.973 14.56,-58.57 54.13,-111.98 110.39,-136.117 69.96,-29.73 157.34,-23 217.99,24.547 54.68,42.922 80.09,114.109 80.6,182.043 -0.15,326.84 -0.11,653.788 -0.11,980.578 h 319.72 c 0,-331.83 0.1,-663.719 -0.05,-995.602 -4.94,-129.75 -46.13,-263.668 -139.01,-357.91 -90.83,-93.0271 -222.51,-134.4294 -349.96,-139.2067 -137.02,-7.293 -282.9,18.789 -393.19,105.1407 -95.93,73.527 -152.19,189.16 -169.36,307.09 -10.79,61.207 -7.33,123.32 -7.78,185.136 0,298.489 -0.11,596.972 0,895.352 M 2547.45,881.055 c -37.73,-11.559 -65.94,-42.012 -88.24,-73.172 -59.83,-87.371 -84.17,-195.371 -80.75,-300.262 94.55,42.609 182.43,109.828 229.74,204.078 17.62,38.449 31.57,82.996 18.28,124.953 -8.81,32.641 -46.18,56.063 -79.03,44.403 M 1056.1,1687.45 c 42.37,31.16 95.37,50.82 148.53,45.06 51.02,-4.37 96.24,-41.55 114.26,-88.85 10.49,-34.73 11.56,-71.69 11.26,-107.8 -8.41,-192.88 -51.33,-381.88 -81.83,-572.067 118.13,157.337 240.84,311.727 376.59,454.447 58.56,58.46 117.22,122.26 196.19,152.76 48.78,19.5 108.15,18.18 151.43,-13.95 44.4,-31.42 78.31,-79.74 85.39,-134.43 8.15,-57.18 -1.52,-114.87 -13.03,-170.88 -37.53,-175.47 -77.35,-351.49 -89.47,-530.931 -1.73,-67.77 -4.68,-138.09 19.2,-202.797 12.27,-32.793 35.64,-64.063 69.66,-75.981 27.14,-10.543 56.77,-6.871 84.98,-3.82 -8.15,80.348 -15.73,162.019 -1.63,242.328 22.66,147.352 104.74,285.195 225.92,372.671 67.11,48.57 146.24,85.39 230.36,86.97 77.04,4.22 157.44,-20.83 211.41,-77.5 73.68,-77.547 99.5,-190.078 92.12,-294.36 -5.91,-106.57 -66.15,-200.359 -132.7,-280 -67.46,-77.449 -151.22,-139.109 -239.36,-191.148 55.34,-39.102 127.19,-51.84 193.08,-36.871 106.26,22.668 204.08,95.937 246.34,197.418 11.97,26.781 30.6,52.043 57.44,65.383 50.66,28.046 122.4,11.757 153.77,-37.473 25.51,-42.32 19.19,-95.879 0,-139.43 C 3114.68,227.059 3017.23,131.629 2904.44,69.6211 2820.78,24.7109 2726.33,-4.57031 2630.55,0.828125 2479.94,-6 2337.77,75.1719 2240.82,186.02 c -121.8,-33 -259.17,-41.45 -374.3,18.628 -101.53,52.153 -166.86,156.172 -193.59,264.832 -42.21,168.192 -20.27,344.817 18.89,511.375 8.76,40.735 24.03,79.885 30.91,120.925 -9.83,-1.47 -17.67,-6.05 -23.63,-13.79 -137.12,-165.236 -271.65,-332.853 -415.65,-492.381 -54.38,-57.339 -117.21,-120.738 -201.02,-125.57 -47.97,0.922 -103.469,16.242 -128.266,61.152 -25.711,48.68 -20.008,106.418 -11,158.707 29.789,178.786 65.076,356.492 98.526,534.552 3.31,19.25 8.92,38.39 9.17,58.05 -10.95,9.62 -18.18,-6.12 -25.21,-11.82 C 888.277,1112.89 762.813,945.109 644.887,772.344 507.152,567.391 377.004,355.781 280.105,128.07 264.93,88.25 247.875,46.1406 212.078,20.1289 179.391,-5.58984 134.477,-0.550781 95.7305,2.66016 25.8203,18.8516 -10.8945,99.3594 2.85547,166.012 71.8516,509.5 169.918,846.426 239.426,1189.88 c 17.308,80.5 118.277,116.65 189.719,86.56 47.964,-17.12 77.906,-67.06 79.078,-116.71 0.914,-48.37 -10.852,-95.73 -21.489,-142.62 124.903,170.78 254.493,338.4 394.77,496.86 54.941,60.9 110.797,121.59 174.596,173.48"
         style="fill:#040606;fill-opacity:1;fill-rule:nonzero;stroke:none"
         id="path14" /></g></g></svg>
