<?xml version="1.0" encoding="UTF-8" standalone="no"?>
<svg
   xmlns:dc="http://purl.org/dc/elements/1.1/"
   xmlns:cc="http://creativecommons.org/ns#"
   xmlns:rdf="http://www.w3.org/1999/02/22-rdf-syntax-ns#"
   xmlns:svg="http://www.w3.org/2000/svg"
   xmlns="http://www.w3.org/2000/svg"
   xmlns:sodipodi="http://sodipodi.sourceforge.net/DTD/sodipodi-0.dtd"
   xmlns:inkscape="http://www.inkscape.org/namespaces/inkscape"
   version="1.1"
   id="svg2"
   xml:space="preserve"
   width="448.44"
   height="218.45332"
   viewBox="0 0 448.44 218.45332"
   sodipodi:docname="sling-tv-seeklogo.com.eps"><metadata
     id="metadata8"><rdf:RDF><cc:Work
         rdf:about=""><dc:format>image/svg+xml</dc:format><dc:type
           rdf:resource="http://purl.org/dc/dcmitype/StillImage" /></cc:Work></rdf:RDF></metadata><defs
     id="defs6" /><sodipodi:namedview
     pagecolor="#ffffff"
     bordercolor="#666666"
     borderopacity="1"
     objecttolerance="10"
     gridtolerance="10"
     guidetolerance="10"
     inkscape:pageopacity="0"
     inkscape:pageshadow="2"
     inkscape:window-width="640"
     inkscape:window-height="480"
     id="namedview4" /><g
     id="g10"
     inkscape:groupmode="layer"
     inkscape:label="ink_ext_XXXXXX"
     transform="matrix(1.3333333,0,0,-1.3333333,0,218.45333)"><g
       id="g12"
       transform="scale(0.1)"><path
         d="m 0,536.852 124.016,86.257 c 46.722,-66.48 116.82,-97.039 203.082,-97.039 91.644,0 132.98,30.559 132.98,80.871 0,61.106 -55.691,70.086 -183.312,106.039 -111.414,30.543 -222.848,82.668 -222.848,231.833 0,150.957 120.43,222.847 269.594,222.847 120.41,0 204.863,-50.31 262.386,-113.21 L 479.852,950.203 c -35.93,41.336 -88.071,73.687 -156.34,73.687 -68.297,0 -106.051,-25.16 -106.051,-70.093 0,-57.512 46.727,-70.09 165.352,-100.641 C 501.418,822.605 630.816,775.879 630.816,615.93 630.816,486.52 551.75,380.5 337.871,380.5 165.352,380.5 50.332,455.969 0,536.852"
         style="fill:#4caee4;fill-opacity:1;fill-rule:nonzero;stroke:none"
         id="path14" /><path
         d="M 766.504,1561.94 H 948.02 V 396.672 H 766.504 V 1561.94"
         style="fill:#4caee4;fill-opacity:1;fill-rule:nonzero;stroke:none"
         id="path16" /><path
         d="m 1083.71,1461.2 c 0,68.3 55.72,118.62 120.4,118.62 64.72,0 120.44,-50.32 120.44,-118.62 0,-71.88 -55.72,-120.41 -120.44,-120.41 -64.68,0 -120.4,48.53 -120.4,120.41"
         style="fill:#f79812;fill-opacity:1;fill-rule:nonzero;stroke:none"
         id="path18" /><path
         d="m 1460.24,1151.49 h 181.51 l -3.61,-140.18 c 46.74,98.84 141.98,156.35 255.19,156.35 167.16,0 282.18,-118.61 282.18,-323.488 v -447.5 H 1994 v 433.121 c 0,107.832 -50.34,170.727 -156.36,170.727 -118.63,0 -195.89,-71.879 -195.89,-194.086 V 396.672 h -181.51 v 754.818"
         style="fill:#4caee4;fill-opacity:1;fill-rule:nonzero;stroke:none"
         id="path20" /><path
         d="m 1385.75,1580.54 c 25.43,-32.49 38.23,-74.11 38.23,-126.24 0,-43.12 -10.96,-81.74 -31.1,-114.23 49.26,17.22 84.65,63.97 84.65,119.1 0,57.76 -38.83,106.35 -91.78,121.37"
         style="fill:#f79812;fill-opacity:1;fill-rule:nonzero;stroke:none"
         id="path22" /><path
         d="m 1499.53,1617.36 c 33.22,-42.44 49.93,-96.8 49.93,-164.91 0,-56.31 -14.31,-106.76 -40.62,-149.2 64.34,22.48 110.59,83.55 110.59,155.57 0,75.45 -50.74,138.93 -119.9,158.54"
         style="fill:#f79812;fill-opacity:1;fill-rule:nonzero;stroke:none"
         id="path24" /><path
         d="m 1641.42,1638.4 c 37.66,-48.12 56.62,-109.76 56.62,-187 0,-63.86 -16.23,-121.07 -46.07,-169.19 72.97,25.49 125.4,94.75 125.4,176.42 0,85.55 -57.53,157.53 -135.95,179.77"
         style="fill:#f79812;fill-opacity:1;fill-rule:nonzero;stroke:none"
         id="path26" /><path
         d="m 2687.01,540.441 c -131.2,0 -213.85,93.457 -213.85,235.438 0,136.59 82.65,230.041 213.85,230.041 132.99,0 219.27,-93.451 219.27,-230.041 0,-141.981 -86.28,-235.438 -219.27,-235.438 z M 2737.04,0 c 213.91,4.30078 345.37,130.648 345.37,385.891 v 765.599 h -181.54 l 5.41,-140.18 c -48.52,91.65 -136.59,156.35 -269.57,156.35 -192.31,0 -350.47,-163.55 -350.47,-391.781 0,-228.25 158.16,-395.379 354.05,-395.379 125.8,0 215.66,61.102 260.58,145.57 V 394.879 c 0,-153.527 -54.53,-238.66 -159.76,-238.66 h -11.95 -337.31 V 0 h 345.19"
         style="fill:#4caee4;fill-opacity:1;fill-rule:nonzero;stroke:none"
         id="path28" /><path
         d="m 1112.47,1151.49 h 183.31 V 396.672 h -183.31 v 754.818"
         style="fill:#4caee4;fill-opacity:1;fill-rule:nonzero;stroke:none"
         id="path30" /><path
         d="M 143.605,8.51953 H 120.266 V 131.281 H 78.2734 v 20.02 H 185.598 v -20.02 H 143.605 V 8.51953"
         style="fill:#4caee4;fill-opacity:1;fill-rule:nonzero;stroke:none"
         id="path32" /><path
         d="M 404.453,8.51953 H 323.691 V 151.301 h 80.762 V 131.57 H 347.031 V 92.6992 H 400.84 V 73.1719 H 347.031 V 28.3516 h 57.422 V 8.51953"
         style="fill:#4caee4;fill-opacity:1;fill-rule:nonzero;stroke:none"
         id="path34" /><path
         d="M 549.734,8.51953 V 151.301 h 23.34 V 28.5391 h 60.449 V 8.51953 h -83.789"
         style="fill:#4caee4;fill-opacity:1;fill-rule:nonzero;stroke:none"
         id="path36" /><path
         d="M 853.797,8.51953 H 773.031 V 151.301 h 80.766 V 131.57 H 796.371 V 92.6992 h 53.813 V 73.1719 H 796.371 V 28.3516 h 57.426 V 8.51953"
         style="fill:#4caee4;fill-opacity:1;fill-rule:nonzero;stroke:none"
         id="path38" /><path
         d="m 1087.28,151.301 h 24.22 l -50,-142.78147 h -24.61 L 987.086,151.301 h 24.024 l 29.78,-88.7697 c 1.57,-4.2305 3.23,-9.6797 4.99,-16.3633 1.75,-6.668 2.89,-11.6289 3.41,-14.8867 0.85,4.9492 2.15,10.6796 3.91,17.1796 1.76,6.5196 3.19,11.3282 4.3,14.461 l 29.78,88.3791"
         style="fill:#4caee4;fill-opacity:1;fill-rule:nonzero;stroke:none"
         id="path40" /><path
         d="M 1248.18,8.51953 V 151.301 h 23.34 V 8.51953 h -23.34"
         style="fill:#4caee4;fill-opacity:1;fill-rule:nonzero;stroke:none"
         id="path42" /><path
         d="m 1508.05,47.2891 c 0,-12.6875 -4.59,-22.6485 -13.77,-29.8789 -9.18,-7.2305 -21.84,-10.83989 -37.99,-10.83989 -16.15,0 -29.36,2.50782 -39.65,7.51949 v 22.0704 c 6.51,-3.0586 13.43,-5.4688 20.75,-7.2305 7.33,-1.75 14.15,-2.6289 20.46,-2.6289 9.25,0 16.07,1.75 20.46,5.2695 4.4,3.5195 6.59,8.2383 6.59,14.1602 0,5.3398 -2.01,9.8593 -6.05,13.5703 -4.03,3.7187 -12.37,8.1094 -25,13.1875 -13.02,5.2734 -22.2,11.3008 -27.54,18.0625 -5.34,6.7773 -8.01,14.9182 -8.01,24.4182 0,11.91 4.24,21.293 12.7,28.121 8.46,6.84 19.82,10.262 34.08,10.262 13.67,0 27.28,-2.993 40.82,-8.993 l -7.42,-19.039 c -12.7,5.34 -24.03,8.008 -33.99,8.008 -7.55,0 -13.28,-1.637 -17.18,-4.93 -3.91,-3.277 -5.86,-7.628 -5.86,-13.039 0,-3.711 0.78,-6.89 2.34,-9.519 1.56,-2.641 4.14,-5.129 7.72,-7.4689 3.57,-2.3516 10.02,-5.4297 19.33,-9.2813 10.49,-4.3593 18.17,-8.4296 23.05,-12.2109 4.88,-3.7695 8.46,-8.0273 10.74,-12.7891 2.29,-4.75 3.42,-10.3515 3.42,-16.8007"
         style="fill:#4caee4;fill-opacity:1;fill-rule:nonzero;stroke:none"
         id="path44" /><path
         d="M 1651.16,8.51953 V 151.301 h 23.34 V 8.51953 h -23.34"
         style="fill:#4caee4;fill-opacity:1;fill-rule:nonzero;stroke:none"
         id="path46" /><path
         d="m 1845.35,80.1094 c 0,-17.5781 3.56,-30.9102 10.65,-39.9883 7.1,-9.0898 17.61,-13.6328 31.54,-13.6328 13.87,0 24.34,4.4922 31.4,13.4805 7.07,8.9804 10.59,22.3593 10.59,40.1406 0,17.5195 -3.49,30.8006 -10.5,39.8396 -6.99,9.051 -17.43,13.571 -31.29,13.571 -14,0 -24.56,-4.52 -31.69,-13.571 -7.13,-9.039 -10.7,-22.3201 -10.7,-39.8396 z m 108.99,0 c 0,-23.25 -5.81,-41.3086 -17.43,-54.1992 -11.63,-12.8907 -28.08,-19.33989 -49.37,-19.33989 -21.54,0 -38.1,6.39849 -49.66,19.19139 -11.55,12.7891 -17.33,30.9766 -17.33,54.5391 0,23.5782 5.81,41.6682 17.43,54.3012 11.62,12.628 28.21,18.937 49.76,18.937 21.23,0 37.63,-6.398 49.21,-19.238 11.6,-12.821 17.39,-30.879 17.39,-54.1916"
         style="fill:#4caee4;fill-opacity:1;fill-rule:nonzero;stroke:none"
         id="path48" /><path
         d="m 2218.85,8.51953 h -28.61 L 2120.02,122.289 h -0.78 l 0.49,-6.34 c 0.91,-12.109 1.36,-23.1795 1.36,-33.2107 V 8.51953 H 2099.9 V 151.301 h 28.32 l 70.02,-113.1916 h 0.59 c -0.14,1.5117 -0.39,6.9609 -0.78,16.3594 -0.39,9.4101 -0.59,16.75 -0.59,22.0195 v 74.8127 h 21.39 V 8.51953"
         style="fill:#4caee4;fill-opacity:1;fill-rule:nonzero;stroke:none"
         id="path50" /><path
         d="m 3301.99,1050.51 -27.76,77.23 h -1.11 l 0.83,-17.83 v -59.4 h -16.44 v 99.61 h 25.83 l 27.08,-77.23 28.05,77.23 h 24.87 v -99.61 h -17.55 v 58.02 l 0.83,18.93 h -1.1 l -29.15,-76.95 z m -82.89,0 h -17 v 84.97 h -28.88 v 14.64 h 75.03 v -14.64 h -29.15 v -84.97"
         style="fill:#4caee4;fill-opacity:1;fill-rule:nonzero;stroke:none"
         id="path52" /></g></g></svg>
